<svg xmlns="http://www.w3.org/2000/svg" viewBox="0 0 21.5 18.35" fill="currentColor"><g><path class="cls-1" d="m1.5,5.75v4c0,.41-.34.75-.75.75s-.75-.34-.75-.75v-4c0-.41.34-.75.75-.75s.75.34.75.75Zm19.25-.75c-.41,0-.75.34-.75.75v4c0,.41.34.75.75.75s.75-.34.75-.75v-4c0-.41-.34-.75-.75-.75ZM3.75,13.75c0,1.1.9,2,2,2h2.46c.33,0,.65.17.83.45l1.29,1.93c.2.3.63.3.83,0l1.29-1.93c.19-.28.5-.45.83-.45h2.46c1.1,0,2-.9,2-2v-2H3.75v2Zm14-9v5.5H3.75v-5.5c0-1.1.9-2,2-2h4.25V.75c0-.41.34-.75.75-.75s.75.34.75.75v2h4.25c1.1,0,2,.9,2,2Zm-9,3c0-.55-.45-1-1-1s-1,.45-1,1,.45,1,1,1,1-.45,1-1Zm6,0c0-.55-.45-1-1-1s-1,.45-1,1,.45,1,1,1,1-.45,1-1Z"/></g></svg>
